<?xml version="1.0" encoding="UTF-8"?>
<svg width="480px" height="596px" viewBox="0 0 480 596" version="1.1" xmlns="http://www.w3.org/2000/svg" xmlns:xlink="http://www.w3.org/1999/xlink">
    <!-- Generator: Sketch 49 (51002) - http://www.bohemiancoding.com/sketch -->
    <title>Group</title>
    <desc>Created with Sketch.</desc>
    <defs>
        <rect id="path-1" x="0" y="0" width="480" height="596" rx="6"></rect>
        <linearGradient x1="100%" y1="64.7735953%" x2="0%" y2="64.7735953%" id="linearGradient-3">
            <stop stop-color="#F66565" offset="0%"></stop>
            <stop stop-color="#FFFFFF" offset="100%"></stop>
        </linearGradient>
        <linearGradient x1="50%" y1="0%" x2="50%" y2="100%" id="linearGradient-4">
            <stop stop-color="#F75757" offset="0%"></stop>
            <stop stop-color="#ED4646" offset="100%"></stop>
        </linearGradient>
        <linearGradient x1="50%" y1="28.0285347%" x2="50%" y2="100%" id="linearGradient-5">
            <stop stop-color="#EF4949" offset="0%"></stop>
            <stop stop-color="#F66565" offset="100%"></stop>
        </linearGradient>
    </defs>
    <g id="Page-1" stroke="none" stroke-width="1" fill="none" fill-rule="evenodd">
        <g id="header-copy-9" transform="translate(-407.000000, -242.000000)">
            <g id="Group" transform="translate(407.000000, 242.000000)">
                <mask id="mask-2" fill="white">
                    <use xlink:href="#path-1"></use>
                </mask>
                <use id="bg" fill="#FFFFFF" xlink:href="#path-1"></use>
                <g id="gg-bridge-copy" mask="url(#mask-2)">
                    <g transform="translate(183.000000, 333.000000) scale(-1, 1) translate(-183.000000, -333.000000) translate(-114.000000, 162.000000)">
                        <rect id="Rectangle-4-Copy" stroke="none" fill="url(#linearGradient-3)" fill-rule="evenodd" transform="translate(285.484594, 310.463115) rotate(-90.000000) translate(-285.484594, -310.463115) " x="253.971989" y="302.053279" width="63.0252101" height="16.8196721"></rect>
                        <rect id="Rectangle-4-Copy-2" stroke="none" fill="url(#linearGradient-3)" fill-rule="evenodd" transform="translate(361.815126, 310.463115) rotate(-90.000000) translate(-361.815126, -310.463115) " x="330.302521" y="302.053279" width="63.0252101" height="16.8196721"></rect>
                        <rect id="Rectangle-4" stroke="none" fill="#ED4646" fill-rule="evenodd" x="0" y="263.508197" width="594" height="16.1188525"></rect>
                        <path d="M361.815126,271.567623 C477.647957,271.567623 571.54902,177.59421 571.54902,61.6721311" id="Oval" stroke="url(#linearGradient-4)" stroke-width="16.0999997" fill="none" transform="translate(466.682073, 166.619877) scale(-1, 1) translate(-466.682073, -166.619877) "></path>
                        <path d="M285.484594,271.567623 C401.317425,271.567623 495.218487,177.59421 495.218487,61.6721311" id="Oval-Copy-2" stroke="url(#linearGradient-4)" stroke-width="16.0999997" fill="none" transform="translate(390.351541, 166.619877) scale(-1, 1) translate(-390.351541, -166.619877) "></path>
                        <rect id="Rectangle-2" stroke="none" fill="url(#linearGradient-5)" fill-rule="evenodd" x="277.081232" y="34.3401639" width="93.1372549" height="229.868852"></rect>
                        <rect id="Rectangle-3" stroke="none" fill="#FFFFFF" fill-rule="evenodd" x="293.887955" y="0" width="60.9243697" height="60.2704918" rx="8.40134406"></rect>
                        <rect id="Rectangle-3-Copy" stroke="none" fill="#FFFFFF" fill-rule="evenodd" x="293.887955" y="84.7991803" width="60.9243697" height="77.0901639" rx="8.40134406"></rect>
                        <rect id="Rectangle-3-Copy-2" stroke="none" fill="#FFFFFF" fill-rule="evenodd" x="293.887955" y="187.118852" width="60.9243697" height="77.0901639" rx="8.40134406"></rect>
                        <path d="M75.4005602,271.567623 C191.233391,271.567623 285.134454,177.59421 285.134454,61.6721311" id="Oval" stroke="#ED4646" stroke-width="16.0999997" fill="none"></path>
                        <path d="M151.731092,271.567623 C267.563923,271.567623 361.464986,177.59421 361.464986,61.6721311" id="Oval-Copy" stroke="#ED4646" stroke-width="16.0999997" fill="none"></path>
                    </g>
                </g>
            </g>
        </g>
    </g>
</svg>